<svg id="visual" viewBox="0 0 900 600" width="900" height="600" xmlns="http://www.w3.org/2000/svg" xmlns:xlink="http://www.w3.org/1999/xlink" version="1.1"><rect x="0" y="0" width="900" height="600" fill="#931C1C"></rect><path d="M0 278L129 204L257 140L386 131L514 190L643 123L771 301L900 175L900 601L771 601L643 601L514 601L386 601L257 601L129 601L0 601Z" fill="#f5730a"></path><path d="M0 297L129 324L257 224L386 272L514 381L643 317L771 295L900 258L900 601L771 601L643 601L514 601L386 601L257 601L129 601L0 601Z" fill="#d15308"></path><path d="M0 403L129 390L257 410L386 436L514 364L643 379L771 384L900 448L900 601L771 601L643 601L514 601L386 601L257 601L129 601L0 601Z" fill="#ac3505"></path><path d="M0 449L129 493L257 484L386 425L514 472L643 490L771 528L900 470L900 601L771 601L643 601L514 601L386 601L257 601L129 601L0 601Z" fill="#871400"></path></svg>